# xmcd CD database file
# Copyright (C) 1996 Ti Kan
#
# Track frame offsets:
#	150
#	17407
#	38905
#	56290
#	82017
#	96745
#	116952
#	145432
#	173077
#	195557
#	197821
#	220825
# Disc length: 3259 seconds
#
# Revision: 1
# Processed by: cddbd v1.4PL0 Copyright (c) Steve Scherf et al.
# Submitted via: CDCOPY 4.900
#
DISCID=ae0cb90c
DTITLE=Hawksley Workman - Lover/Fighter
DYEAR=1900
DGENRE=
TTITLE0=We Will Still Need a Song
TTITLE1=Even an Ugly Man
TTITLE2=Wonderful and Sad
TTITLE3=Anger as Beauty
TTITLE4=No Reason to Cry Your Eyes Out (On the Highway Tonight)
TTITLE5=Tonight Romanticize the Automobile
TTITLE6=The Future Language of Slaves
TTITLE7=Smoke Baby
TTITLE8=Autumn's Here
TTITLE9=(blank)
TTITLE10=Ilfracombe
TTITLE11=Addicted
EXTD=
EXTT0=
EXTT1=
EXTT2=
EXTT3=
EXTT4=
EXTT5=
EXTT6=
EXTT7=
EXTT8=
EXTT9=
EXTT10=
EXTT11=
PLAYORDER=
